<svg xmlns="http://www.w3.org/2000/svg" viewBox="0 0 677.96 138"><defs><style>.cls-1{fill-rule:evenodd;}</style></defs><g id="Layer_2" data-name="Layer 2"><g id="Layer_1-2" data-name="Layer 1"><path d="M215.51,79.88a19.81,19.81,0,0,1-1.21,7.55,11.32,11.32,0,0,1-3.17,4.78,13.44,13.44,0,0,1-4,2.43,12.89,12.89,0,0,1-4.22.82,11.08,11.08,0,0,1-4.78-1.06,12,12,0,0,1-4.14-3.08,15,15,0,0,1-3-5.6,28.67,28.67,0,0,1-1.14-8.27V77l-11,2.68V80c0,7.55,2.19,13.71,6.41,18.33s10.22,7.06,17.76,7.06,13.55-2.35,17.76-7S227,87.26,227,79.07V31.55H215.6V79.88Z"/><path d="M270.91,79.23a18.09,18.09,0,0,1-1.38,7.14A13.68,13.68,0,0,1,266,91.48a15.4,15.4,0,0,1-9.73,4,10.52,10.52,0,0,1-7.87-3.09c-2-2-3-5.59-3-10.38V52.88H234.82V82.8c0,7.55,1.78,13.22,5.27,17s8.43,5.6,14.76,5.6c6.49,0,11.92-2.84,16-8.35v7.54h10.62V52.88H270.83V79.23Z"/><path d="M328.74,78.67a18.19,18.19,0,0,1-4.06,11.92,12.82,12.82,0,0,1-10.3,4.86,13.2,13.2,0,0,1-10.14-4.94,17.65,17.65,0,0,1-4.3-11.84,18.14,18.14,0,0,1,4.22-11.85,13.11,13.11,0,0,1,20.44-.08A17.85,17.85,0,0,1,328.74,78.67ZM316.17,52.06a20.31,20.31,0,0,0-9.74,2.44,18.71,18.71,0,0,0-6.4,5.43V52.87H289.4v74.54H300V97.24a18.18,18.18,0,0,0,6.32,5.59,20.62,20.62,0,0,0,9.82,2.44,21.34,21.34,0,0,0,16.54-7.63c4.46-5,6.73-11.43,6.73-19s-2.27-13.87-6.65-18.9A21.56,21.56,0,0,0,316.17,52.06Z"/><path d="M411.87,73c1.94-7.62,7-11.52,15-11.52a12.4,12.4,0,0,1,12.82,11.44ZM445.53,60.9a23.41,23.41,0,0,0-5.52-5A23.94,23.94,0,0,0,433.44,53a25.83,25.83,0,0,0-7.05-.9c-7.55,0-13.79,2.52-18.58,7.47s-7.13,11.35-7.13,19.14a29.37,29.37,0,0,0,3,13.38,24.5,24.5,0,0,0,9,9.65,26.11,26.11,0,0,0,13.87,3.57,27,27,0,0,0,7.62-1.06,20.8,20.8,0,0,0,6-2.67,22.74,22.74,0,0,0,4.55-3.81,24.23,24.23,0,0,0,3.24-4.3,27.63,27.63,0,0,0,2.11-4.38l.16-.41L440.09,86l-.16.32a17.26,17.26,0,0,1-5.19,6.65,13.07,13.07,0,0,1-8,2.51c-4.46,0-8.11-1.29-10.87-4a15,15,0,0,1-4.7-9.57h39l.08-.32a28.26,28.26,0,0,0,.32-3.65,35.16,35.16,0,0,0-1.37-9.65A23.41,23.41,0,0,0,445.53,60.9Z"/><path d="M532.63,95.46a21.9,21.9,0,0,1-12.49-3.65,24.8,24.8,0,0,1-8.6-9.9A32.62,32.62,0,0,1,508.46,68a30.43,30.43,0,0,1,3.08-13.87,23.61,23.61,0,0,1,8.6-9.89,23.32,23.32,0,0,1,25.06,0,24.07,24.07,0,0,1,8.59,9.89A32.93,32.93,0,0,1,556.88,68a30.41,30.41,0,0,1-3.09,13.87,24.18,24.18,0,0,1-8.59,9.9A22.34,22.34,0,0,1,532.63,95.46Zm26-53.78a33.2,33.2,0,0,0-11.27-7.94,37.9,37.9,0,0,0-29.2,0,32.35,32.35,0,0,0-11.19,7.94,37.45,37.45,0,0,0-7.14,11.85,42.24,42.24,0,0,0,0,29,37.4,37.4,0,0,0,7.14,11.84,32.38,32.38,0,0,0,11.27,8,38,38,0,0,0,29.2,0,33.46,33.46,0,0,0,11.27-8,36.38,36.38,0,0,0,7.22-11.84,42.36,42.36,0,0,0,0-28.95A37.19,37.19,0,0,0,558.58,41.68Z"/><path d="M602.54,52.06a19.79,19.79,0,0,0-6.49,1.06,17.06,17.06,0,0,0-5.27,2.68,40.48,40.48,0,0,0-3.49,3c-.56.56-1,1.13-1.54,1.7V53h-10.7v51.58h10.62V78.1A18.12,18.12,0,0,1,587.05,71a13.76,13.76,0,0,1,3.49-5.11,14.9,14.9,0,0,1,9.65-4A10.39,10.39,0,0,1,608.14,65c1.94,2.11,3,5.6,3,10.46v29h10.62V74.53C621.84,59.61,615.36,52.06,602.54,52.06Z"/><path d="M639.2,73c1.94-7.62,7-11.52,15-11.52A12.4,12.4,0,0,1,667,72.91Zm38.44,8.6a28.26,28.26,0,0,0,.32-3.65,32.12,32.12,0,0,0-1.46-9.65,21.7,21.7,0,0,0-9.24-12.41A23.94,23.94,0,0,0,660.69,53a25.9,25.9,0,0,0-7.06-.9c-7.54,0-13.78,2.52-18.57,7.47s-7.14,11.35-7.14,19.14a29.5,29.5,0,0,0,3,13.38,24,24,0,0,0,9,9.65,26.08,26.08,0,0,0,13.87,3.57,27.06,27.06,0,0,0,7.62-1.06,20.8,20.8,0,0,0,6-2.67A23,23,0,0,0,672,97.73a24.29,24.29,0,0,0,3.25-4.3,27.63,27.63,0,0,0,2.11-4.38l.16-.41L667.42,86l-.16.32a17.26,17.26,0,0,1-5.19,6.65,13.07,13.07,0,0,1-8,2.51c-4.46,0-8.11-1.29-10.87-4a15,15,0,0,1-4.7-9.57h39.09Z"/><path d="M355.26,56.2a16.08,16.08,0,0,1-9.17,0l-.73-.24v48.9h10.55V56Z"/><path d="M350.8,34.3a6.83,6.83,0,0,0-5.11,2,6.9,6.9,0,0,0-1.95,5,6.79,6.79,0,0,0,1.95,5,7.35,7.35,0,0,0,10.21,0,6.92,6.92,0,0,0,2-5,6.9,6.9,0,0,0-2-5A6.82,6.82,0,0,0,350.8,34.3Z"/><path d="M382.75,38.36h-9.57v.16c0,14.19-9.57,16.79-10.71,17.11l-.32.09v7.13h9.49V86.78a27.55,27.55,0,0,0,1.05,8.11,15.29,15.29,0,0,0,2.76,5.51,13.43,13.43,0,0,0,4.14,3.33,17.57,17.57,0,0,0,4.94,1.62,36.3,36.3,0,0,0,12.9-.4l.32-.09V94.56l-.24.09c-.08,0-7.87,2.27-12.08-.9-1.79-1.38-2.68-3.48-2.68-6.32V62.85h15V53.36h-15Z"/><path d="M481.7,52.88a21.93,21.93,0,0,0-9.09,4,16.39,16.39,0,0,0-4.7,5.52V52.88H457.2v51.58h10.71V78.59a17.76,17.76,0,0,1,1.22-6.49,12.62,12.62,0,0,1,3.4-4.87,17.22,17.22,0,0,1,5-3,16.08,16.08,0,0,1,5.51-1h.57a23,23,0,0,1,6.65,1.3l.41.16.08-.33a47.46,47.46,0,0,1,2.11-11.19l.08-.16-.65-.16A28.73,28.73,0,0,0,481.7,52.88Z"/><path class="cls-1" d="M11.5,68.55c0,1.37.11,2.85.21,4.22H28.77c5.48,0,11.16,0,16.32-1.37,7.58-2,14.32-6.33,21.38-11l.21-.11a25.67,25.67,0,0,1,7.58-3.79A40.19,40.19,0,0,1,84.9,55.28h39.27A53.1,53.1,0,0,0,118.06,40h-99A57.6,57.6,0,0,0,11.5,68.55Zm100.35,37a56.91,56.91,0,0,1-80.34,6.32,59.85,59.85,0,0,1-6.32-6.32ZM105.22,81a10,10,0,1,1-10-10A10.07,10.07,0,0,1,105.22,81Zm20.11-17.17H84.79a30.93,30.93,0,0,0-8.21.84,19.42,19.42,0,0,0-5.27,2.74l-.21.11h0c-7.26,4.74-14.84,9.68-23.77,12.1C41.72,81.09,36,81.19,30.56,81.19H13a56.18,56.18,0,0,0,6.21,15.7H118a55.48,55.48,0,0,0,7.58-28.55c0-1.38-.09-2.76-.19-4.23h0ZM31.51,25.15a57,57,0,0,1,80.34,6.32H25.19A51,51,0,0,1,31.51,25.15ZM69,138A69,69,0,1,0,0,69,69,69,0,0,0,69,138Z"/></g></g></svg>