<svg xmlns="http://www.w3.org/2000/svg" viewBox="0 0 318.87 318.87"><defs><style>.cls-1{fill:#00bfa5;fill-rule:evenodd;}</style></defs><g id="Layer_2" data-name="Layer 2"><g id="Layer_1-2" data-name="Layer 1"><path class="cls-1" d="M26.58,158.4c0,3.16.24,6.57.48,9.74H66.48c12.65,0,25.79,0,37.71-3.17,17.52-4.62,33.09-14.6,49.4-25.31l.48-.25a59.25,59.25,0,0,1,17.52-8.76,93,93,0,0,1,24.57-2.92h90.76a123.28,123.28,0,0,0-14.11-35.3H44.1A133.05,133.05,0,0,0,26.58,158.4Zm231.87,85.44C211.25,299.1,128,305.91,72.8,258.45a138.74,138.74,0,0,1-14.59-14.61Zm-15.32-56.72A23.12,23.12,0,1,1,220,164,23.27,23.27,0,0,1,243.13,187.12Zm46.47-39.67H195.92a70.57,70.57,0,0,0-19,1.94,44.46,44.46,0,0,0-12.17,6.33l-.49.24-.06,0C147.46,167,130,178.37,109.31,184c-12.9,3.41-26,3.65-38.69,3.65H30a129.74,129.74,0,0,0,14.35,36.27H272.57a128.22,128.22,0,0,0,17.52-66c0-3.19-.22-6.39-.45-9.78h0ZM72.8,58.11a131.71,131.71,0,0,1,185.65,14.6H58.21A118.35,118.35,0,0,1,72.8,58.11Zm86.64,260.76A159.44,159.44,0,1,0,0,159.44,159.43,159.43,0,0,0,159.44,318.87Z"/></g></g></svg>